<mxfile host="65bd71144e">
    <diagram id="HIP3nbAZw_EuaXWnEj3U" name="Page-1">
        <mxGraphModel dx="1086" dy="692" grid="1" gridSize="10" guides="1" tooltips="1" connect="1" arrows="1" fold="1" page="1" pageScale="1" pageWidth="850" pageHeight="1100" math="0" shadow="0">
            <root>
                <mxCell id="0"/>
                <mxCell id="1" parent="0"/>
                <mxCell id="7" value="http://ics2o.mths.ca" style="swimlane;whiteSpace=wrap;html=1;" parent="1" vertex="1">
                    <mxGeometry x="20" y="70" width="760" height="480" as="geometry"/>
                </mxCell>
                <mxCell id="8" value="&lt;font style=&quot;font-size: 18px;&quot;&gt;Converting temperature program, with JS&lt;/font&gt;" style="text;html=1;align=center;verticalAlign=middle;resizable=0;points=[];autosize=1;strokeColor=none;fillColor=none;strokeWidth=1;fontSize=18;" vertex="1" parent="7">
                    <mxGeometry x="40" y="40" width="350" height="40" as="geometry"/>
                </mxCell>
                <mxCell id="9" value="&lt;font style=&quot;font-size: 18px;&quot;&gt;Formula&lt;/font&gt;" style="text;html=1;align=center;verticalAlign=middle;resizable=0;points=[];autosize=1;strokeColor=none;fillColor=none;fontSize=18;strokeWidth=1;" vertex="1" parent="7">
                    <mxGeometry x="40" y="100" width="90" height="40" as="geometry"/>
                </mxCell>
                <mxCell id="10" value="&lt;div style=&quot;font-size: 18px;&quot;&gt;&lt;font style=&quot;font-size: 18px;&quot;&gt;(°F − 32) × 5/9 = °C&lt;/font&gt;&lt;/div&gt;" style="text;html=1;align=center;verticalAlign=middle;resizable=0;points=[];autosize=1;strokeColor=none;fillColor=none;fontSize=18;strokeWidth=1;" vertex="1" parent="7">
                    <mxGeometry x="40" y="150" width="180" height="40" as="geometry"/>
                </mxCell>
                <mxCell id="11" value="temperature :&amp;nbsp;" style="text;html=1;align=center;verticalAlign=middle;resizable=0;points=[];autosize=1;strokeColor=none;fillColor=none;fontSize=18;strokeWidth=1;" vertex="1" parent="7">
                    <mxGeometry x="40" y="270" width="140" height="40" as="geometry"/>
                </mxCell>
                <mxCell id="14" value="&lt;font style=&quot;font-size: 18px;&quot;&gt;Convert temperature&lt;/font&gt;" style="rounded=1;whiteSpace=wrap;html=1;fontSize=18;strokeWidth=1;" vertex="1" parent="7">
                    <mxGeometry x="80" y="350" width="210" height="40" as="geometry"/>
                </mxCell>
                <mxCell id="17" value="&lt;font style=&quot;font-size: 18px;&quot;&gt;The temperature is : 25°C&lt;br style=&quot;font-size: 18px;&quot;&gt;&lt;/font&gt;" style="text;html=1;align=center;verticalAlign=middle;resizable=0;points=[];autosize=1;strokeColor=none;fillColor=none;fontSize=18;strokeWidth=1;" vertex="1" parent="7">
                    <mxGeometry x="40" y="420" width="230" height="40" as="geometry"/>
                </mxCell>
                <mxCell id="18" value="" style="rounded=1;whiteSpace=wrap;html=1;fontSize=18;strokeWidth=1;" vertex="1" parent="7">
                    <mxGeometry x="170" y="277.5" width="140" height="25" as="geometry"/>
                </mxCell>
                <mxCell id="20" value="" style="shape=image;verticalLabelPosition=bottom;labelBackgroundColor=default;verticalAlign=top;aspect=fixed;imageAspect=0;image=data:image/jpeg,/9j/4AAQSkZJRgABAQAAAQABAAD/2wCEAAkGBw8TERAQEA8SExAVFhAQERUQEhUVGBgRFRUWFxcVFRYZHSggGBsnHRYYITEiJSorLy4uGB81ODMsNygvLisBCgoKDg0OGxAQGislICUtLS0tLS0tLS0tLSstLS0tLS0tLS0tLS0tLS0tLS0tLS0tLS0tLS0tLS0tLS0tLS0tLf/AABEIAIgBcQMBEQACEQEDEQH/xAAbAAEAAgMBAQAAAAAAAAAAAAAABQYBAwcEAv/EAEkQAAIBAwEEBQUKDAQHAAAAAAECAAMEERIFBiExE0FRYXEHFCKBkRYyM0JSYnKTobEVIyZTVFWSpMHR0tMXguHwJDVDc5Sisv/EABkBAQADAQEAAAAAAAAAAAAAAAABAgMEBf/EAC4RAQACAgAFAgUDBAMAAAAAAAABAgMRBBITITEiURQjMkHwJFKBM1NxkTRhof/aAAwDAQACEQMRAD8A7jAQEBAQEBAQEBAQEBAQEBAQEBAQEBAQEBAQEBAQEBAQEBAQEBAQEBAQEBAQEBAQEBAQEBAQEBAQEBAQEBAQEBAQEBAQEBAQEBAQEBAQEBAQEBAQEBAQEBAQEBAQEBAQEBAQEBAQEBAQEBAQEBAQEBAQEBAQEBAQEBAQEBAQEBAQEBAQEBAQK1X342ejOjVH1KzI2KTnipIPHHaJnOWsOaeLxROpl8e77Z351/qn/lI61EfGYvf/AMWK0uFqIlRDlHVXXIx6LDI4eBmkTuNumJiY3DdJSQEBAQEBAQEBAQEBAQEBAQEBAQEBAQEBAQEBAQEBAQEBAQEBAQEBAQEBA+KrgAseQBJ9QkImdRLm/k82RRufOqtxSWoNShdYzhjqZvvWYYqxO5l53C4q35rWja4+5TZ/6JS/ZmvJX2dfw+L9sJahRVFVEACqAqgcgoGABLtojUabISQEBAQIzbW37S0UNdXCUg3BdR4tjnpUZJ9QkTMR5Vm0R5fexttWt0hqWtdKqA4JQ8QexgeKnxiJifBW0W8JCSsQEBAQEBAQEBAQIjbe89jaFRdXKUmbiqkksR26VBOO/EibRCtr1r5l7NmbToXFMVbeqlWmeAamwIyOYPYe4xE7TExPh65KSAgICAgICAgICAgICAgICAgICAgICB49rU3ahXWmM1Gp1FTJwNRUgZPVxMifHZW8TNZiFA2bu/tu2Rlt6lNFJ1lVamxLYA5unYB1zCtMlfDz6YeIxxqum2x31u7eqKO0aXDhqbSFcA/GwPRdfD7YjJaJ1ZavE5KW5ckOiU3BAIIIIBBHWD1zod8Tt9QkgICAgcquRaneG5G09GgUaPmQuMdFp0rnGrhnV0mM9erumXbm7uadTk9T73cFsN4Kg2bp8282PnXQ/BdJnhpx6Oc6eXa3fER6uya66np8OpEzV0Kltjyj7Kt2KNcdI4yCtBTUwR1Fh6IPdmUm9YZWzUhF0fK/ssnBW5UdrUgR/wCrEyOpVWOIoumxtq0LqitxbvrpNnS2COIOCMMAQQQR6peJ22raJjcPbJSQEBAQPFtfaVO3ovWqH0VHIcyTwCjvJkTaIjcqZLxSvNLXsPaZuKK1uiamrZKhyCSvU3DqMVncIx356xbTm+wEsW2ttb8KdF5wKp83F3p0eb5bTo1cM6Oj9Xrmca5p2yryzeeZ6/Jx0I2ptUWP/L8UsaONPpuGdHd8JjHVjqxJp5nScWuadeFm25v7s60rNb3FV1qqFYhaVRhhhkcVGJabxHlpbJWs6l4P8Vtj/n6n/j1f6ZXqVV69PdKbvb77PvapoW1V2qBGqkNSdPQBVScsAObCWi8SvXJW06hY5ZcgICAgeG/2vbUfhq9OmexmGfUOcibRHlS2Slfql57PeSyqsEp3NMseAGrBJ7gcZkRes/dWubHbxMJYSzVrr10RSzsqqOZYgAeJMImYjvKJ91mz86fO6WfE49uMSnPX3ZfEYt65oS1CujqGRlZTxBUggjuIl9tYmJjcIjeDeJbQ0ulpOaTnSai4wp7xz5cfUZS14r5ZZc0Y9bTNNwwDAgggEEciDyIl20d31AQEBAQEBAxAQKL5VqSdBbvw6QVCo7dBRi3qyFmGeOzg4+I5IlYtzi3mNrq59GuPo/F+zE1p9MOnB/ThMyzYgICAgRW3d3LO8VVurdKunOknIZc89LLggHA4Z44kTET5VtSLeX3sTYNpaIUtaC0lJy2nJLHqLMclvWYiIjwmtYjw5j5UN57i4uRseyJ4stKtoODUqOPgs9SAHLesHgDnO9pmdQ58t5meSFl3Y8l+z7dFNxTW5r4GpqoygPYlPljvOTJikfdemGtY7p+tudsthpOzrTHzaFNT6ioBEvyx7L9OvskdlbOo29JKFBNFJAQi5JwCSeZ4niTzkrRERGoeuEkBAQECgb61Dc31rs9T6GVerjtIJPrCAn/NMMne0Q4OInnyVxQvlKmFAVQAoAUAdQHACbu7WuyI27upYXhDXVslRwMBssrY7NSkEjuMiaxPlFqVt5h7dlbKt7amKNtSSlTHHSgxk9pPMnvPGIiI8JisR2hx3fW3SpvHQp1FD03eyR1YZBU4BBHWJlaPW5b98sOne4fZP6vtvqlmnLX2dHTr7PZsvduxt3NS3taVKoVKFqaBTpJBIyOrIHskxWITFYjwlZKxAQEDBgVQbh2rVq1as1SprdnC6ioGTnBI4n2zLpRM7lyRwlJtNp+6H3z3MtqVu1xbhkKYLKWLBlJAPPiCM59UpkxxEbhjxPC1rTmqnvJ7tGpWswahLNTdqWo8SQApBJ6+DAeqaYp3V0cLebY+7G8u6vnlek712WiqkMg+VngVzwBIOCe4RfHzSZuH6lomZ7NVbcDZ5TSqVFbHBhUYnPbg8PskdGsqzweLWlb3Qr1bPaDWTNlGZkI6tWnUlQDqJGAfHumePdbcrn4e04svTlfd49mC4tqtEjiwyh7Ki8VPtH3ze8bjTvy4+ek1QXk02malsaLn06DaBnn0bcV9hDDwAlMNtxqWHB5Oamp+y4TV1tVe4RMa3Vc8tTAffIRMxHl9U6isAVYEHkVOR7ZJE7YrVlUZdlUdrEAe0wTOijVVhlWDDtUgj2iCJ22QkgQ29FxdpR1WdPXV1LkYBwgyT6JIz1DA48ZW82iOzHNN613SNyq437vVGl9nNr8Ki8folT98y6tvZy/F5I80eSlsbaG0ay1btTRoLyBBX0SeK01PHJ62P8MSIra87lWMWXPbd+0Ok0aSqqqowqgKoHUAMATo09GI1Gn3CSAgICAgYc4BPZxgcO8jydPtW4uanFwleuP+5VqAE+xmHrmNI9Tjw97zLuU2dhAQMGBULzeq+SpURdk1XVWZVcGphgCQGGKZ585lN7b8OS3EZInUUmfz/DV7r9ofqet7an9qR1LftV+Jy/25/P4PdftD9T1vbU/tR1LftPicv9ufz+E5u5tavcLUNe0e3KkBQ+r0gRzGpRNK2mfMN8OS143aulW3b/G7avKh+J0yjxVlpD7AZlTvkmXLh78TaXQpu9AgYMDhflCv1t9vpcOCUpGzqsFxkqoBIGSBmZWnVtuPLaK5YmVp/wAadn/o917KP9yOrDT4mvtKybl77W+0jXFCnVToRSLdKE49JrxjSx/Nn2iXrbmaUyRfwtEs0YgMwAgZgQe828aWa02em7hyyjRp4YGeOTKXvysM2aMURMwo22t66l/ptU6O3osQXatUAzg5GpsYAzxwOeOcwtk5/THZxZM85vR4h0Pd7ZaW1ulFDqA4lvlM3Et/vqxOitYrGnoYscUrFYSUs0fFRwoLMQFAJJPIAcyZEomdd3M93Qbza1S5UHokZqucfFC6KfrOM+oznr6r7ebi+bnm8eIdPnS9Nz3c/wDF7VvqI96elIHhUBH2OZhTtkmHn4O2e1XQpu9BHbf2RTuqD0anXxRutXHJh/vlmVtXcaZ5McZK8sqTuLtSpbV32dc+j6RFPPJanPA+a3Md/jMcduWeWXFw2ScdunZq3guKm0r1bSifxFInUw5ZHB6h7ce9X/WLTz21HhGWZz5OSviHRNn2dOjTSlTXSiAKo/n39c3iNdnoVrFY1D0SViAgYxAzAQEBAQEBAQMMIHCPJzX8x21Vtqp0hzXs8ngNesNTP+bSAPpiYV7WceP05NS7uJu7GYCBgwIC43z2ejvTeuQysyMOjqHDKcEZCynUq554rHWdTLX7udm/nz9VU/pkdWvuj4vF7nu52b+fP1VT+mOrX3Pi8Xuk9kbZt7kM1B9YUhW9FlwSMj3wEtW0W8NaZK3jdZU7c06drbQU8ybgjw6YH7iJlj+uXHw/bPaHQpu9AgYMDim96Bt5bZWAKmpYggjII4cCOuZW+tyX/rQ6/wDgi1/RqH1SfymmnVqG62s6VPPR0kTOM6EVc45ZwOPM+2SaiG+EoDefYNa5NI0rx7fR0gbQGOrVpxnS68tJ7ecpenN92GbDOTWp0hDuLd/ret+zU/vSnSn3YfCX/fP5/K6WtIqiIW1FVVSx6yBjPrmrtiNRpukpYIHZAr+9m7tvXo1G6NVqqrOjqADkDOGI5jxmeSsTDnz4KXr47oTyWbSd6dagxJWnoannqV9WV8Mrn1mVwz20w4LJMxNZ+y9EzZ3ud717fqXlQWFjllY4qMDwbHMZ6qY6z1+HPnvebTy1ednzTlnp41v3a2GlpRFJfSY+lUfGNT4+wdQE1pSKxp14cUY66hLy7Zz3dr0ttXrDkBXB/bpr/CYV/qS8/D/ybfns6FN3oBgcz8pTUnuaNOipa6Aw+jng8UXA4luZ7h48ObNrca8vN4vU3iI8vf5LK9v0damBi41anJ5tT+Lp7hxGO098thmNaX4Ga8sx918m7vUfeD8N+c1fNdXm+U6PHQ8tC6vfcffaucxt1N9nDl+I555PCP8Ayj+f+7yvzWf6r80flH8/93j5p+q/NH5R/P8A3ePmn6r80flH8/8Ad4+afqvzR+Ufz/3ePmn6r80flH8/93j5p+q/NJTdr8M+cJ53q6DD6s9Dzx6PvePOWpz79TXD1+b1+F0E2drMBAQEDm3lP3Ae6bz2zA86AAqJnT0gX3rK3VUAAHHGQBxGBM70me8MMuLfePKC2N5VLq1At9p2tRnT0dfwdXA+Wj4DHvBErGSY+pSuaa9rQlq/lqsseha3DN1BzSUZ8QxP2SerC3xEey87p7Ya7tKNy1JqTPqyjZ4YYrwJAyDjIOOOZpE7htSdxtLyVkdU2FZsSzWluzEksWo0ySTzJJHEyvLHspOOk95iP9Pj3P2P6FbfUU/6Y5a+yOlT9sf6Z9z9j+hW31FP+mOWvsdKn7Y/09NpYUaQIo0qdMHiRTRUye04HGTERC1a1r4hRr//AIXbVOqeFO4wCe916Mj9sKT4zGfTk/y4b/L4jf2l0ITd6DMDBgcV3sYe6e1GRnpLD+Eyt9blvHzodrmrqICAgICB8VWwCcE4BOBxJx1AQifCi2nlHRcpdW1RHHA6MH2q5BH2zHre8OKONiPriXl29v309Nrezo1NdQFCzAatJ4EIik5J7ZW2XcahTJxfPHLjidpzcHYD21F3qjFaqVJXnpRfeqe/iSfGXxUmsd2/C4Zx17+ZQHlD3ofpHsqRKKuBWbOC2QDpHYuDx7fDnTLefDn4viJieSrx7tb12VnTwtvUaq2OkqFkyT2DjwXukUyVrHhTDxGPHHaO6etPKNQepTpi3qAuyUwdScCzAZ+2XjLG9adFeNrMxGvK43lwtOm9RzhUVnY9yjJmszqNuu0xWJmVJ8mNuzG6vHHGo+keOS7/AGsvsmOGPNnHwcTPNefuvs3dyG3o26lpQaocFz6NJSffOf4DmZS9uWGWbLGOu1a8nexndm2hXJao5boi3M599U9fId2e0TPFWfqs5eExzPzbffwj97bCpYXaX1uMU3bJHUHPv0PzWGT7ewSt45bc0M89Jw5OpR0HZG0qdxRSvSOVYZ7wetT3g8J0RO429DHeL1i0PbJXICAgICAgICAgICAgIGm5tadQYqU1cdjqGHsIhEw00dl26HKW9JT2rTQH2gSNGoeySkgICAgIFc332Cbqh+LH4+nl6XVn5SZ6s/eBM8lOaHPxOHqV7eYSG7teu9BPOabU6wGhw2OJHxhg9f8AOWpM67r4ZtNI5o7pOWakD46Jc5wM9uOMIfcJICAgICAgaLizpP8ACU0f6ahvvEjUKzWJ8wxb2dJPg6aJ9BAv3CIiI8EViPEPRJWa2pKeag+IhEwx0K/JX2CQahnoV+SPYJJqFa34o3damlrbUmIqMvS1MgKqAjAPHPPicdQx1zPJEzGoc/Exe1eSseU5sfZyW9GnQT3qDGe08yx7ySTL1jUabY6RSsVh7ZK74amDzAPiIRqH0BCWHUHmM+MIkRAOQx4QmH1AQNVzXVFZ3YKigsxPIAcSTImdd5RMxEblRqm+N7cVGTZ1qGVeb1Bk46ickKngSTMepa0+mHDPE5LzrFD4pb53tvVWntG2CqfjICCB1kcSr47AY6lqz6oI4nJS2skL7QrK6q6kMrAMpHIqRkETaO/d3RMTG4bJKSAgICAgICAgICAgICAgICAgICAgICAgICAgICAgICAgICAgICAgICAgIFO8qFyy2ioOVSqqt9FQWx7QPZMc06q5ONtMY9R90juPaJTsbfSBl1FVj2s/Hj6sD1S+ONV7NOGrFccaat/7JallVJHpU8VUPYQRn2qSJGWN1V4qkWxz/wBPP5M7svZ6D/06j0x9EgOP/oj1SMU7qrwdpnH3W2ausgICAgICAgICAgICAgICAgICAgICAgICAgICAgICAgICAgICAgICAgICBBb5bGN1bNTTHSKRUp562XIx6wSPWJTJXddMOIx9SmlO3a3xNmnmt3RqegSEwBqAJzpZWIyM8jMq5Jr2lyYeJnFHJeGzePeupdW9VLai60AM16tTA9HIwgxkZJwOZP3xbJMx2Tm4ib0mKxqEv5LKJFpUY/GqsR4BVH3gy2CPS14KPl/yuc2dhAQEBAQEBAQEBAQEBAQEBAQEBAQEBAQEBAQEBAQEBAQEBAQEBAQEBAQEDBgabi3ptxdEbHy1Bx7ZGvdE1j7w53vptoXLU7CyAddQ1FMaWcclXHxRzJ5cB2TDJbm9MPO4jJz6x0XvYWzlt7elQXjoXBPa54sfWSTN6xqNO7FSKUiEhJaEBAQEBAQEBAQEBAQEBAQEBAQEBAQEBAQEBAQEBAQEBAQEBAQEBAQEBAQNV0rFHCnDFWCnsYg4MifCJ3qdKAdy9pVfRub/ACnWA1SoP2TpEx6Vp8y4PhctvqstO7269taDNMFqhGGqPgtjsHUo8PtmlccVdOLBTH48puXbkBAQEBAQEBAQEBAQEBAQEBAQEBAQEBAQEBAQEBAQEBAQEBAQEBAQEBAQEBAQEBAQEBAQEBAQEBAQEBAQEBAQEBAQEBAQEBAQEBAQEBAQEBAQEBAQEBAQEBAQEBAQEBAQEBA//9k=;" vertex="1" parent="7">
                    <mxGeometry x="410" y="120" width="325.59" height="120" as="geometry"/>
                </mxCell>
                <mxCell id="21" value="&lt;span style=&quot;font-size: 18px;&quot;&gt;°F&lt;/span&gt;" style="text;html=1;align=center;verticalAlign=middle;resizable=0;points=[];autosize=1;strokeColor=none;fillColor=none;fontSize=18;strokeWidth=1;" vertex="1" parent="7">
                    <mxGeometry x="310" y="270" width="40" height="40" as="geometry"/>
                </mxCell>
                <mxCell id="22" value="Please enter temperature in Fahrenheit :" style="text;html=1;align=center;verticalAlign=middle;resizable=0;points=[];autosize=1;strokeColor=none;fillColor=none;fontSize=18;" vertex="1" parent="7">
                    <mxGeometry x="40" y="210" width="350" height="40" as="geometry"/>
                </mxCell>
            </root>
        </mxGraphModel>
    </diagram>
</mxfile>